G04 MADE WITH FRITZING*
G04 WWW.FRITZING.ORG*
G04 DOUBLE SIDED*
G04 HOLES PLATED*
G04 CONTOUR ON CENTER OF CONTOUR VECTOR*
%ASAXBY*%
%FSLAX23Y23*%
%MOIN*%
%OFA0B0*%
%SFA1.0B1.0*%
%ADD10C,0.070000*%
%ADD11C,0.071889*%
%ADD12C,0.071917*%
%ADD13C,0.075000*%
%ADD14C,0.067559*%
%ADD15C,0.078000*%
%ADD16C,0.039370*%
%ADD17C,0.074000*%
%ADD18R,0.070000X0.069972*%
%ADD19R,0.075000X0.075000*%
%ADD20C,0.016000*%
%LNCOPPER0*%
G90*
G70*
G54D10*
X1665Y653D03*
X1565Y653D03*
X1465Y653D03*
X1365Y653D03*
X1265Y653D03*
X1165Y653D03*
X1065Y653D03*
X965Y653D03*
X865Y653D03*
X765Y653D03*
X665Y653D03*
X565Y653D03*
X465Y653D03*
X365Y653D03*
X265Y653D03*
X1665Y53D03*
X1565Y53D03*
X1465Y53D03*
X1365Y53D03*
X1265Y53D03*
X1165Y53D03*
X1065Y53D03*
X965Y53D03*
X865Y53D03*
X765Y53D03*
X665Y53D03*
X565Y53D03*
X465Y53D03*
X365Y53D03*
X265Y53D03*
G54D11*
X1904Y268D03*
X2004Y268D03*
X2104Y268D03*
X2204Y268D03*
G54D12*
X2304Y268D03*
G54D11*
X2404Y268D03*
X2504Y268D03*
X2604Y268D03*
X2704Y268D03*
G54D12*
X2804Y268D03*
G54D11*
X2904Y268D03*
G54D12*
X3004Y268D03*
G54D11*
X3104Y268D03*
X3204Y268D03*
X3304Y268D03*
X3404Y268D03*
G54D12*
X3504Y268D03*
G54D11*
X3604Y268D03*
X3704Y268D03*
X3804Y268D03*
X3804Y368D03*
X3704Y368D03*
X3604Y368D03*
G54D12*
X3504Y368D03*
G54D11*
X3404Y368D03*
X3304Y368D03*
X3204Y368D03*
X3104Y368D03*
G54D12*
X3004Y368D03*
G54D11*
X2904Y368D03*
G54D12*
X2804Y368D03*
G54D11*
X2704Y368D03*
X2604Y368D03*
X2504Y368D03*
X2404Y368D03*
G54D12*
X2304Y368D03*
G54D11*
X2204Y368D03*
X2104Y368D03*
X2004Y368D03*
X1904Y368D03*
G54D13*
X1398Y814D03*
X1398Y1114D03*
X1495Y814D03*
X1495Y1114D03*
X1595Y814D03*
X1595Y1114D03*
X1695Y814D03*
X1695Y1114D03*
X1795Y814D03*
X1795Y1114D03*
X1895Y814D03*
X1895Y1114D03*
X1995Y814D03*
X1995Y1114D03*
X2095Y814D03*
X2095Y1114D03*
X2195Y814D03*
X2195Y1114D03*
X1139Y1431D03*
X1039Y1431D03*
X937Y1434D03*
X837Y1434D03*
X285Y1427D03*
X385Y1427D03*
X490Y1427D03*
X590Y1427D03*
G54D14*
X2296Y1277D03*
X2217Y1277D03*
X2138Y1277D03*
X2060Y1277D03*
X1981Y1277D03*
X1902Y1277D03*
X1823Y1277D03*
X1745Y1277D03*
X1666Y1277D03*
X1587Y1277D03*
X1509Y1277D03*
X1430Y1277D03*
X1351Y1277D03*
X2453Y1277D03*
X2532Y1277D03*
X2611Y1277D03*
X2690Y1277D03*
X2768Y1277D03*
X2847Y1277D03*
X2926Y1277D03*
X3005Y1277D03*
X3083Y1277D03*
X3162Y1277D03*
X3241Y1277D03*
X3320Y1277D03*
X2381Y84D03*
X2460Y84D03*
X2538Y84D03*
X2617Y84D03*
X2696Y84D03*
X2775Y84D03*
X3536Y1416D03*
X3458Y1416D03*
X3687Y1414D03*
X3766Y1414D03*
G54D15*
X1135Y1321D03*
X1035Y1321D03*
X935Y1321D03*
X835Y1321D03*
X593Y1318D03*
X493Y1318D03*
X393Y1318D03*
X293Y1318D03*
G54D13*
X3687Y626D03*
X3687Y526D03*
X3908Y184D03*
X3608Y184D03*
X3456Y835D03*
X3556Y835D03*
X3785Y822D03*
X3885Y822D03*
G54D10*
X3450Y731D03*
X3650Y731D03*
X3846Y529D03*
X3846Y729D03*
G54D13*
X3523Y991D03*
X3623Y991D03*
X3811Y1045D03*
X3811Y945D03*
X2486Y713D03*
X2486Y1013D03*
X2586Y713D03*
X2586Y1013D03*
X2686Y713D03*
X2686Y1013D03*
X2786Y713D03*
X2786Y1013D03*
X2886Y713D03*
X2886Y1013D03*
X2986Y713D03*
X2986Y1013D03*
X3086Y713D03*
X3086Y1013D03*
X3186Y713D03*
X3186Y1013D03*
G54D16*
X3297Y168D03*
G54D13*
X3552Y1283D03*
X3452Y1283D03*
X3680Y1293D03*
X3780Y1293D03*
X3627Y1169D03*
X3527Y1169D03*
X3719Y1171D03*
X3819Y1171D03*
G54D17*
X449Y1139D03*
X499Y1214D03*
X549Y1139D03*
X330Y952D03*
X380Y1027D03*
X430Y952D03*
X991Y1155D03*
X1041Y1230D03*
X1091Y1155D03*
X843Y996D03*
X893Y1071D03*
X943Y996D03*
G54D16*
X1341Y1405D03*
X366Y370D03*
X363Y424D03*
X1365Y333D03*
X366Y317D03*
X366Y264D03*
X371Y154D03*
X369Y210D03*
X123Y1214D03*
X81Y720D03*
X767Y924D03*
X39Y765D03*
X716Y922D03*
X716Y1225D03*
X646Y1056D03*
X506Y823D03*
G54D18*
X1665Y653D03*
G54D19*
X3523Y991D03*
X3811Y1045D03*
X2486Y713D03*
G54D20*
X2270Y497D02*
X1920Y454D01*
D02*
X3373Y1018D02*
X3383Y505D01*
D02*
X3383Y505D02*
X2270Y497D01*
D02*
X3210Y1014D02*
X3373Y1018D01*
D02*
X2273Y549D02*
X1904Y493D01*
D02*
X3321Y900D02*
X3323Y558D01*
D02*
X3190Y900D02*
X3321Y900D01*
D02*
X3323Y558D02*
X2273Y549D01*
D02*
X3102Y996D02*
X3190Y900D01*
D02*
X2275Y599D02*
X1912Y544D01*
D02*
X3273Y824D02*
X3273Y610D01*
D02*
X3172Y824D02*
X3273Y824D01*
D02*
X3273Y610D02*
X2275Y599D01*
D02*
X3003Y997D02*
X3172Y824D01*
D02*
X564Y507D02*
X565Y77D01*
D02*
X2275Y643D02*
X1907Y588D01*
D02*
X2988Y640D02*
X2275Y643D01*
D02*
X2987Y690D02*
X2988Y640D01*
D02*
X3806Y922D02*
X3789Y845D01*
D02*
X3526Y1146D02*
X3524Y1014D01*
D02*
X3614Y970D02*
X3565Y856D01*
D02*
X3572Y817D02*
X3636Y746D01*
D02*
X3657Y711D02*
X3680Y648D01*
D02*
X3797Y803D02*
X3834Y746D01*
D02*
X3911Y406D02*
X3908Y207D01*
D02*
X3825Y728D02*
X3785Y727D01*
D02*
X2060Y1297D02*
X2060Y1356D01*
D02*
X3241Y1356D02*
X3241Y1297D01*
D02*
X2060Y1356D02*
X3241Y1356D01*
D02*
X1788Y1136D02*
X1750Y1259D01*
D02*
X2180Y1131D02*
X2072Y1262D01*
D02*
X1912Y1261D02*
X1984Y1134D01*
D02*
X1886Y1135D02*
X1831Y1260D01*
D02*
X1669Y1258D02*
X1691Y1136D01*
D02*
X1588Y1258D02*
X1594Y1137D01*
D02*
X1507Y1258D02*
X1497Y1137D01*
D02*
X1426Y1258D02*
X1402Y1136D01*
D02*
X2576Y1034D02*
X2462Y1260D01*
D02*
X2687Y1036D02*
X2689Y1258D01*
D02*
X2785Y1036D02*
X2770Y1258D01*
D02*
X3321Y1164D02*
X2886Y1164D01*
D02*
X3320Y1258D02*
X3321Y1164D01*
D02*
X2886Y1164D02*
X2886Y1036D01*
D02*
X2777Y911D02*
X2875Y733D01*
D02*
X2407Y965D02*
X2777Y911D01*
D02*
X2310Y1264D02*
X2402Y1175D01*
D02*
X2402Y1175D02*
X2407Y965D01*
D02*
X2314Y1159D02*
X2229Y1262D01*
D02*
X2371Y911D02*
X2314Y1159D01*
D02*
X2705Y851D02*
X2371Y911D01*
D02*
X2775Y733D02*
X2705Y851D01*
D02*
X2252Y1151D02*
X2151Y1263D01*
D02*
X2342Y851D02*
X2252Y1151D01*
D02*
X2513Y804D02*
X2342Y851D01*
D02*
X2572Y731D02*
X2513Y804D01*
D02*
X2298Y758D02*
X2241Y942D01*
D02*
X2241Y942D02*
X1312Y944D01*
D02*
X1312Y944D02*
X1349Y1258D01*
D02*
X2464Y718D02*
X2298Y758D01*
D02*
X3460Y1435D02*
X3468Y1508D01*
D02*
X3771Y1511D02*
X3767Y1433D01*
D02*
X3468Y1508D02*
X3771Y1511D01*
D02*
X3891Y800D02*
X3916Y711D01*
D02*
X2950Y88D02*
X2794Y84D01*
D02*
X3086Y247D02*
X2950Y88D01*
D02*
X2703Y241D02*
X2697Y103D01*
D02*
X2606Y241D02*
X2616Y103D01*
D02*
X2509Y241D02*
X2535Y103D01*
D02*
X2412Y242D02*
X2454Y103D01*
D02*
X3455Y812D02*
X3451Y751D01*
D02*
X3607Y207D02*
X3605Y241D01*
D02*
X3693Y464D02*
X2408Y450D01*
D02*
X3689Y503D02*
X3693Y464D01*
D02*
X2408Y450D02*
X2406Y396D01*
D02*
X3457Y1397D02*
X3453Y1306D01*
D02*
X3549Y1306D02*
X3539Y1397D01*
D02*
X3452Y1260D02*
X3456Y858D01*
D02*
X3681Y1316D02*
X3686Y1394D01*
D02*
X3768Y1394D02*
X3777Y1316D01*
D02*
X3783Y1404D02*
X3891Y1345D01*
D02*
X3891Y1345D02*
X3885Y845D01*
D02*
X3547Y1260D02*
X3532Y1191D01*
D02*
X3650Y1170D02*
X3696Y1171D01*
D02*
X3802Y1187D02*
X3697Y1278D01*
D02*
X3818Y1148D02*
X3812Y1068D01*
D02*
X3814Y127D02*
X3863Y234D01*
D02*
X3824Y440D02*
X3759Y440D01*
D02*
X3757Y747D02*
X3697Y809D01*
D02*
X3555Y127D02*
X3814Y127D01*
D02*
X3311Y166D02*
X3555Y127D01*
D02*
X3697Y1068D02*
X3640Y1150D01*
D02*
X866Y382D02*
X865Y77D01*
D02*
X770Y430D02*
X766Y77D01*
D02*
X667Y469D02*
X665Y77D01*
D02*
X750Y796D02*
X584Y668D01*
D02*
X1375Y813D02*
X750Y796D01*
D02*
X1743Y385D02*
X866Y382D01*
D02*
X1540Y755D02*
X778Y752D01*
D02*
X778Y752D02*
X683Y669D01*
D02*
X1579Y797D02*
X1540Y755D01*
D02*
X1711Y432D02*
X770Y430D01*
D02*
X1667Y472D02*
X667Y469D01*
D02*
X1632Y512D02*
X564Y507D01*
D02*
X1645Y718D02*
X826Y715D01*
D02*
X826Y715D02*
X782Y670D01*
D02*
X1685Y793D02*
X1645Y718D01*
D02*
X994Y847D02*
X1129Y895D01*
D02*
X1129Y895D02*
X1460Y890D01*
D02*
X728Y843D02*
X994Y847D01*
D02*
X484Y667D02*
X728Y843D01*
D02*
X1460Y890D02*
X1486Y834D01*
D02*
X1920Y454D02*
X1743Y385D01*
D02*
X1904Y493D02*
X1711Y432D01*
D02*
X1912Y544D02*
X1667Y472D01*
D02*
X1907Y588D02*
X1632Y512D01*
D02*
X2037Y652D02*
X2179Y797D01*
D02*
X1725Y570D02*
X2037Y652D01*
D02*
X1339Y562D02*
X1725Y570D01*
D02*
X1280Y635D02*
X1339Y562D01*
D02*
X1355Y1405D02*
X3438Y1416D01*
D02*
X853Y1418D02*
X886Y1384D01*
D02*
X886Y1384D02*
X920Y1341D01*
D02*
X1036Y1346D02*
X1038Y1408D01*
D02*
X1136Y1346D02*
X1138Y1408D01*
D02*
X3759Y440D02*
X3757Y747D01*
D02*
X3786Y476D02*
X3824Y476D01*
D02*
X3824Y476D02*
X3911Y406D01*
D02*
X3866Y406D02*
X3824Y440D01*
D02*
X469Y154D02*
X470Y309D01*
D02*
X382Y70D02*
X469Y154D01*
D02*
X470Y309D02*
X378Y364D01*
D02*
X1365Y77D02*
X1365Y319D01*
D02*
X372Y1339D02*
X305Y1407D01*
D02*
X492Y1348D02*
X491Y1398D01*
D02*
X592Y1348D02*
X591Y1398D01*
D02*
X516Y1510D02*
X433Y1507D01*
D02*
X571Y1448D02*
X516Y1510D01*
D02*
X433Y1507D02*
X400Y1452D01*
D02*
X495Y1287D02*
X497Y1241D01*
D02*
X392Y1293D02*
X381Y1048D01*
D02*
X555Y1166D02*
X586Y1288D01*
D02*
X442Y970D02*
X537Y1121D01*
D02*
X1104Y1507D02*
X974Y1507D01*
D02*
X974Y1507D02*
X950Y1460D01*
D02*
X1127Y1457D02*
X1104Y1507D01*
D02*
X1098Y1181D02*
X1127Y1292D01*
D02*
X1039Y1257D02*
X1037Y1291D01*
D02*
X961Y1016D02*
X1072Y1135D01*
D02*
X897Y1098D02*
X930Y1291D01*
D02*
X149Y317D02*
X353Y317D01*
D02*
X359Y1026D02*
X154Y1024D01*
D02*
X154Y1024D02*
X149Y317D01*
D02*
X180Y872D02*
X372Y870D01*
D02*
X181Y370D02*
X180Y872D01*
D02*
X372Y870D02*
X415Y929D01*
D02*
X353Y370D02*
X181Y370D01*
D02*
X501Y725D02*
X709Y878D01*
D02*
X211Y720D02*
X501Y725D01*
D02*
X213Y422D02*
X211Y720D01*
D02*
X709Y878D02*
X942Y894D01*
D02*
X942Y894D02*
X942Y974D01*
D02*
X349Y424D02*
X213Y422D01*
D02*
X123Y1201D02*
X118Y264D01*
D02*
X118Y264D02*
X353Y264D01*
D02*
X768Y1033D02*
X872Y1065D01*
D02*
X767Y937D02*
X768Y1033D01*
D02*
X81Y213D02*
X81Y707D01*
D02*
X356Y210D02*
X81Y213D01*
D02*
X357Y154D02*
X39Y150D01*
D02*
X716Y936D02*
X716Y1212D01*
D02*
X39Y150D02*
X39Y751D01*
D02*
X636Y1040D02*
X516Y839D01*
D02*
X3863Y234D02*
X3866Y406D01*
D02*
X3916Y711D02*
X3853Y548D01*
D02*
X3785Y727D02*
X3786Y476D01*
D02*
X3697Y809D02*
X3697Y1068D01*
D02*
X1797Y340D02*
X1877Y361D01*
D02*
X1378Y333D02*
X1797Y340D01*
G04 End of Copper0*
M02*