; NON-PLATED HOLES START AT T1
; THROUGH (PLATED) HOLES START AT T100
M48
INCH
T100C0.027559
T101C0.044111
T102C0.044139
T103C0.032000
T104C0.038000
T105C0.015748
T106C0.035000
T107C0.030000
T108C0.036000
%
T100
X026108Y012773
X027683Y012773
X022959Y012773
X029258Y012773
X013510Y012773
X028471Y012773
X015872Y012773
X025383Y000839
X023808Y000839
X031620Y012773
X017447Y012773
X016660Y012773
X022171Y012773
X034576Y014161
X026170Y000839
X026957Y000839
X037659Y014135
X027745Y000839
X020597Y012773
X014297Y012773
X030045Y012773
X024534Y012773
X026896Y012773
X018234Y012773
X019022Y012773
X015085Y012773
X033195Y012773
X030833Y012773
X019809Y012773
X035363Y014161
X036871Y014135
X032408Y012773
X025321Y012773
X024595Y000839
X021384Y012773
T101
X022041Y002682
X037041Y002682
X024041Y003682
X038041Y003682
X034041Y002682
X021041Y003682
X033041Y002682
X020041Y003682
X036041Y003682
X031041Y002682
X027041Y002682
X029041Y003682
X032041Y003682
X024041Y002682
X026041Y003682
X038041Y002682
X025041Y003682
X021041Y002682
X036041Y002682
X020041Y002682
X019041Y003682
X022041Y003682
X037041Y003682
X029041Y002682
X032041Y002682
X034041Y003682
X026041Y002682
X033041Y003682
X025041Y002682
X031041Y003682
X027041Y003682
X019041Y002682
T102
X035041Y003682
X023041Y003682
X030041Y002682
X028041Y002682
X030041Y003682
X035041Y002682
X028041Y003682
X023041Y002682
T103
X003803Y010265
X003303Y009515
X008425Y009959
X010905Y011547
X009905Y011547
X004989Y012143
X004303Y009515
X009425Y009959
X004489Y011393
X005489Y011393
X010405Y012297
X008925Y010709
T104
X005932Y013175
X004932Y013175
X011350Y013211
X010350Y013211
X003932Y013175
X009350Y013211
X002932Y013175
X008350Y013211
T105
X007164Y009223
X003627Y004242
X000392Y007646
X003660Y002636
X007164Y012250
X000807Y007200
X005064Y008225
X013649Y003327
X032973Y001683
X001234Y012143
X013414Y014051
X006456Y010562
X003664Y003165
X007667Y009239
X003691Y002096
X003708Y001540
X003660Y003704
T106
X020951Y008135
X036080Y001842
X021951Y008135
X036874Y006260
X039080Y001842
X037801Y012931
X010386Y014312
X036801Y012931
X028864Y010129
X026864Y010129
X024864Y010129
X004895Y014265
X011386Y014312
X037189Y011714
X029864Y010129
X027864Y010129
X025864Y010129
X005895Y014265
X013977Y011135
X035265Y011689
X038189Y011714
X028864Y007129
X026864Y007129
X024864Y007129
X036265Y011689
X029864Y007129
X027864Y007129
X025864Y007129
X013977Y008135
X031864Y010129
X035515Y012827
X038110Y009447
X030864Y010129
X034515Y012827
X038110Y010447
X031864Y007129
X030864Y007129
X016951Y011135
X014951Y011135
X036874Y005260
X003852Y014270
X019951Y011135
X017951Y011135
X015951Y011135
X008365Y014344
X034563Y008345
X036233Y009912
X002852Y014270
X018951Y011135
X016951Y008135
X014951Y008135
X009365Y014344
X035563Y008345
X037845Y008223
X035233Y009912
X019951Y008135
X017951Y008135
X015951Y008135
X038845Y008223
X018951Y008135
X020951Y011135
X021951Y011135
T107
X036502Y007307
X038455Y005286
X034502Y007307
X038455Y007286
T108
X002653Y000533
X014653Y006533
X013653Y006533
X011653Y006533
X007653Y006533
X014653Y000533
X010653Y006533
X013653Y000533
X004653Y006533
X011653Y000533
X007653Y000533
X003653Y006533
X010653Y000533
X004653Y000533
X016653Y006533
X003653Y000533
X015653Y006533
X009653Y006533
X016653Y000533
X012653Y006533
X008653Y006533
X015653Y000533
X006653Y006533
X009653Y000533
X005653Y006533
X012653Y000533
X008653Y000533
X006653Y000533
X002653Y006533
X005653Y000533
T00
M30
